<svg width="520" height="420" viewBox="0 0 520 420" fill="none" xmlns="http://www.w3.org/2000/svg">
  <!-- Background circle -->
  <circle cx="260" cy="210" r="160" fill="#028537" opacity="0.15"/>
  <!-- Central node (hub) -->
  <circle cx="260" cy="200" r="36" fill="#1A1A1A"/>
  <circle cx="260" cy="200" r="24" fill="#028537"/>
  <!-- Spokes & project nodes -->
  <!-- Top -->
  <line x1="260" y1="164" x2="260" y2="90" stroke="#1A1A1A" stroke-width="2.5" stroke-dasharray="5 4"/>
  <circle cx="260" cy="74" r="20" fill="#1A1A1A"/>
  <circle cx="260" cy="74" r="12" fill="#C5C8FF"/>
  <!-- Right -->
  <line x1="292" y1="185" x2="370" y2="130" stroke="#1A1A1A" stroke-width="2.5" stroke-dasharray="5 4"/>
  <circle cx="386" cy="120" r="20" fill="#1A1A1A"/>
  <circle cx="386" cy="120" r="12" fill="#028537"/>
  <!-- Bottom-right -->
  <line x1="290" y1="218" x2="356" y2="294" stroke="#1A1A1A" stroke-width="2.5" stroke-dasharray="5 4"/>
  <circle cx="366" cy="308" r="20" fill="#1A1A1A"/>
  <circle cx="366" cy="308" r="12" fill="#C5C8FF"/>
  <!-- Bottom-left -->
  <line x1="228" y1="218" x2="162" y2="294" stroke="#1A1A1A" stroke-width="2.5" stroke-dasharray="5 4"/>
  <circle cx="150" cy="308" r="20" fill="#1A1A1A"/>
  <circle cx="150" cy="308" r="12" fill="#028537"/>
  <!-- Left -->
  <line x1="226" y1="185" x2="148" y2="130" stroke="#1A1A1A" stroke-width="2.5" stroke-dasharray="5 4"/>
  <circle cx="132" cy="120" r="20" fill="#1A1A1A"/>
  <circle cx="132" cy="120" r="12" fill="#C5C8FF"/>
  <!-- Floating coins -->
  <rect x="420" y="60" width="36" height="36" rx="8" fill="#028537" stroke="#1A1A1A" stroke-width="2"/>
  <text x="438" y="84" text-anchor="middle" font-family="monospace" font-size="16" font-weight="bold" fill="#1A1A1A">$</text>
  <rect x="56" y="280" width="36" height="36" rx="8" fill="#028537" stroke="#1A1A1A" stroke-width="2"/>
  <text x="74" y="304" text-anchor="middle" font-family="monospace" font-size="16" font-weight="bold" fill="#1A1A1A">$</text>
  <rect x="440" y="300" width="30" height="30" rx="6" fill="#C5C8FF" stroke="#1A1A1A" stroke-width="2"/>
  <text x="455" y="320" text-anchor="middle" font-family="monospace" font-size="12" font-weight="bold" fill="#1A1A1A">♥</text>
  <!-- Stars -->
  <text x="80" y="100" font-size="18" fill="#1A1A1A" opacity="0.4">★</text>
  <text x="420" y="200" font-size="14" fill="#1A1A1A" opacity="0.3">★</text>
  <text x="340" y="50" font-size="22" fill="#028537" stroke="#1A1A1A" stroke-width="0.5">★</text>
</svg>
