<svg width="400" height="320" viewBox="0 0 400 320" fill="none" xmlns="http://www.w3.org/2000/svg">
  <!-- Stack of coins (layers) -->
  <!-- Bottom layer -->
  <ellipse cx="200" cy="280" rx="100" ry="22" fill="#1A1A1A"/>
  <rect x="100" y="258" width="200" height="22" fill="#111"/>
  <ellipse cx="200" cy="258" rx="100" ry="22" fill="#C5C8FF"/>
  <!-- Middle layer -->
  <ellipse cx="200" cy="228" rx="84" ry="18" fill="#1A1A1A"/>
  <rect x="116" y="210" width="168" height="18" fill="#111"/>
  <ellipse cx="200" cy="210" rx="84" ry="18" fill="#99FCA5"/>
  <!-- Upper-middle layer -->
  <ellipse cx="200" cy="182" rx="70" ry="16" fill="#1A1A1A"/>
  <rect x="130" y="166" width="140" height="16" fill="#111"/>
  <ellipse cx="200" cy="166" rx="70" ry="16" fill="#C5C8FF"/>
  <!-- Top layer -->
  <ellipse cx="200" cy="140" rx="56" ry="13" fill="#1A1A1A"/>
  <rect x="144" y="127" width="112" height="13" fill="#111"/>
  <ellipse cx="200" cy="127" rx="56" ry="13" fill="#99FCA5"/>
  <!-- Arrow up -->
  <path d="M200 110 L200 60" stroke="#1A1A1A" stroke-width="4" stroke-linecap="round"/>
  <path d="M182 78 L200 60 L218 78" stroke="#1A1A1A" stroke-width="4" stroke-linecap="round" stroke-linejoin="round" fill="none"/>
  <!-- Dollar signs -->
  <text x="200" y="132" text-anchor="middle" font-family="monospace" font-size="11" font-weight="bold" fill="#1A1A1A">$$$</text>
  <!-- Small stars -->
  <text x="60" y="180" font-size="18" fill="#99FCA5">✦</text>
  <text x="320" y="160" font-size="14" fill="#C5C8FF">✦</text>
  <text x="290" y="60" font-size="22" fill="#99FCA5">↑</text>
  <text x="80" y="80" font-size="12" fill="#333">earn</text>
</svg>
